<mxfile host="app.diagrams.net" modified="2023-09-01T20:41:17.192Z" agent="5.0 (Macintosh; Intel Mac OS X 10_15_7) AppleWebKit/537.36 (KHTML, like Gecko) Chrome/118.0.0.0 Safari/537.36" etag="IYSD3NTUajTgND683Kii" version="20.3.0" type="github">
  <diagram name="Page-1" id="2YBvvXClWsGukQMizWep">
    <mxGraphModel dx="1031" dy="1675" grid="1" gridSize="10" guides="1" tooltips="1" connect="1" arrows="1" fold="1" page="1" pageScale="1" pageWidth="850" pageHeight="1100" math="0" shadow="0">
      <root>
        <mxCell id="0" />
        <mxCell id="1" parent="0" />
        <mxCell id="YYfSadtOhX8EvxRNaJ2H-13" value="" style="edgeStyle=orthogonalEdgeStyle;rounded=0;orthogonalLoop=1;jettySize=auto;html=1;" edge="1" parent="1" source="YYfSadtOhX8EvxRNaJ2H-1" target="YYfSadtOhX8EvxRNaJ2H-12">
          <mxGeometry relative="1" as="geometry" />
        </mxCell>
        <mxCell id="YYfSadtOhX8EvxRNaJ2H-15" value="" style="edgeStyle=orthogonalEdgeStyle;rounded=0;orthogonalLoop=1;jettySize=auto;html=1;" edge="1" parent="1" source="YYfSadtOhX8EvxRNaJ2H-1" target="YYfSadtOhX8EvxRNaJ2H-14">
          <mxGeometry relative="1" as="geometry" />
        </mxCell>
        <mxCell id="YYfSadtOhX8EvxRNaJ2H-1" value="layout&lt;br&gt;check for user session" style="rounded=0;whiteSpace=wrap;html=1;" vertex="1" parent="1">
          <mxGeometry x="40" y="70" width="120" height="60" as="geometry" />
        </mxCell>
        <mxCell id="YYfSadtOhX8EvxRNaJ2H-11" value="" style="edgeStyle=orthogonalEdgeStyle;rounded=0;orthogonalLoop=1;jettySize=auto;html=1;" edge="1" parent="1" source="YYfSadtOhX8EvxRNaJ2H-2" target="YYfSadtOhX8EvxRNaJ2H-7">
          <mxGeometry relative="1" as="geometry" />
        </mxCell>
        <mxCell id="YYfSadtOhX8EvxRNaJ2H-2" value="Authorized&lt;br&gt;redirects" style="rounded=0;whiteSpace=wrap;html=1;" vertex="1" parent="1">
          <mxGeometry x="180" y="212" width="120" height="60" as="geometry" />
        </mxCell>
        <mxCell id="YYfSadtOhX8EvxRNaJ2H-8" value="" style="edgeStyle=orthogonalEdgeStyle;rounded=0;orthogonalLoop=1;jettySize=auto;html=1;" edge="1" parent="1" source="YYfSadtOhX8EvxRNaJ2H-3" target="YYfSadtOhX8EvxRNaJ2H-4">
          <mxGeometry relative="1" as="geometry" />
        </mxCell>
        <mxCell id="YYfSadtOhX8EvxRNaJ2H-3" value="unauthorizeed&lt;br&gt;Home page" style="rounded=0;whiteSpace=wrap;html=1;" vertex="1" parent="1">
          <mxGeometry x="181" y="-70" width="120" height="60" as="geometry" />
        </mxCell>
        <mxCell id="YYfSadtOhX8EvxRNaJ2H-9" value="" style="edgeStyle=orthogonalEdgeStyle;rounded=0;orthogonalLoop=1;jettySize=auto;html=1;" edge="1" parent="1" source="YYfSadtOhX8EvxRNaJ2H-4" target="YYfSadtOhX8EvxRNaJ2H-5">
          <mxGeometry relative="1" as="geometry" />
        </mxCell>
        <mxCell id="YYfSadtOhX8EvxRNaJ2H-4" value="Login Modal" style="rounded=0;whiteSpace=wrap;html=1;" vertex="1" parent="1">
          <mxGeometry x="330" y="-70" width="120" height="60" as="geometry" />
        </mxCell>
        <mxCell id="YYfSadtOhX8EvxRNaJ2H-10" value="" style="edgeStyle=orthogonalEdgeStyle;rounded=0;orthogonalLoop=1;jettySize=auto;html=1;" edge="1" parent="1" source="YYfSadtOhX8EvxRNaJ2H-5" target="YYfSadtOhX8EvxRNaJ2H-6">
          <mxGeometry relative="1" as="geometry" />
        </mxCell>
        <mxCell id="YYfSadtOhX8EvxRNaJ2H-5" value="Next Auth" style="rounded=0;whiteSpace=wrap;html=1;" vertex="1" parent="1">
          <mxGeometry x="480" y="-70" width="120" height="60" as="geometry" />
        </mxCell>
        <mxCell id="YYfSadtOhX8EvxRNaJ2H-6" value="Sets user session" style="rounded=0;whiteSpace=wrap;html=1;" vertex="1" parent="1">
          <mxGeometry x="630" y="-70" width="120" height="60" as="geometry" />
        </mxCell>
        <mxCell id="YYfSadtOhX8EvxRNaJ2H-7" value="Boards" style="rounded=0;whiteSpace=wrap;html=1;" vertex="1" parent="1">
          <mxGeometry x="390" y="212" width="120" height="60" as="geometry" />
        </mxCell>
        <mxCell id="YYfSadtOhX8EvxRNaJ2H-12" value="yes" style="ellipse;whiteSpace=wrap;html=1;rounded=0;" vertex="1" parent="1">
          <mxGeometry x="40" y="210" width="120" height="60" as="geometry" />
        </mxCell>
        <mxCell id="YYfSadtOhX8EvxRNaJ2H-14" value="no" style="ellipse;whiteSpace=wrap;html=1;rounded=0;" vertex="1" parent="1">
          <mxGeometry x="40" y="-70" width="120" height="60" as="geometry" />
        </mxCell>
      </root>
    </mxGraphModel>
  </diagram>
</mxfile>
